if (_typeface_js && _typeface_js.loadFace) _typeface_js.loadFace({"glyphs":{"S":{"x_min":45,"x_max":694,"ha":737,"o":"m 48 0 l 48 343 l 166 343 l 166 259 q 387 105 250 105 q 505 147 457 105 q 554 259 554 190 q 514 356 554 327 q 366 415 475 386 q 178 479 239 449 q 81 565 117 509 q 45 697 45 621 q 124 887 45 816 q 322 958 203 958 q 533 885 435 958 l 533 948 l 648 948 l 648 662 l 533 662 l 533 727 q 332 837 460 837 q 213 801 254 837 q 172 716 172 765 q 193 649 172 678 q 246 607 214 620 q 375 569 279 593 q 556 508 500 536 q 653 414 612 480 q 694 263 694 348 q 608 63 694 142 q 398 -15 523 -15 q 166 77 269 -15 l 166 0 l 48 0 "},"/":{"x_min":6.78125,"x_max":600.859375,"ha":608,"o":"m 488 963 l 600 963 l 119 -15 l 6 -15 l 488 963 "},"K":{"x_min":25,"x_max":863,"ha":868,"o":"m 143 118 l 143 826 l 25 826 l 25 944 l 407 944 l 407 826 l 285 826 l 285 118 l 394 118 l 394 0 l 25 0 l 25 118 l 143 118 m 289 498 l 592 826 l 485 826 l 485 944 l 855 944 l 855 826 l 754 826 l 463 498 l 762 118 l 863 118 l 863 0 l 480 0 l 480 118 l 582 118 l 289 498 "},"7":{"x_min":82,"x_max":671.6875,"ha":753,"o":"m 151 0 l 151 115 l 282 115 q 359 496 282 297 q 523 821 436 696 l 199 821 l 199 694 l 82 694 l 82 942 l 671 942 l 671 846 q 496 510 578 735 q 414 115 414 285 l 523 115 l 523 0 l 151 0 "},"d":{"x_min":61,"x_max":865,"ha":868,"o":"m 865 115 l 865 0 l 618 0 l 618 96 q 383 -11 521 -11 q 158 76 255 -11 q 61 325 61 164 q 160 581 61 487 q 386 675 260 675 q 618 569 518 675 l 618 829 l 491 829 l 491 944 l 747 944 l 747 115 l 865 115 m 199 329 q 260 162 199 220 q 407 104 321 104 q 553 165 489 104 q 618 335 618 226 q 552 500 618 444 q 405 556 487 556 q 258 490 318 556 q 199 329 199 425 "},",":{"x_min":119.296875,"x_max":286,"ha":405,"o":"m 119 0 l 119 167 l 286 167 l 286 21 q 274 -93 286 -53 q 225 -161 262 -134 q 119 -187 187 -187 l 119 -117 q 200 -16 200 -105 q 200 0 200 -10 l 119 0 "},"Y":{"x_min":-14,"x_max":911,"ha":898,"o":"m 382 118 l 382 429 l 101 826 l -14 826 l -14 944 l 374 944 l 374 826 l 255 826 l 463 534 l 653 826 l 535 826 l 535 944 l 911 944 l 911 826 l 786 826 l 524 429 l 524 118 l 653 118 l 653 0 l 255 0 l 255 118 l 382 118 "},"E":{"x_min":37.6875,"x_max":822,"ha":868,"o":"m 160 118 l 160 826 l 37 826 l 37 944 l 822 944 l 822 659 l 705 659 l 705 826 l 302 826 l 302 545 l 652 545 l 652 427 l 302 427 l 302 118 l 705 118 l 705 289 l 822 289 l 822 0 l 37 0 l 37 118 l 160 118 "},"y":{"x_min":12,"x_max":770,"ha":782,"o":"m 337 12 l 121 542 l 12 542 l 12 657 l 337 657 l 337 542 l 258 542 l 399 178 l 538 542 l 452 542 l 452 657 l 770 657 l 770 542 l 672 542 l 347 -294 l 130 -294 l 130 -181 l 258 -181 l 337 12 "},"\"":{"x_min":90,"x_max":475,"ha":565,"o":"m 142 562 l 104 762 q 90 874 90 844 q 155 958 90 958 q 205 937 185 958 q 226 885 226 917 q 208 761 226 856 l 171 562 l 142 562 m 390 562 l 354 759 q 338 875 338 846 q 407 958 338 958 q 456 937 437 958 q 475 886 475 916 q 462 760 475 827 l 423 562 l 390 562 "},"g":{"x_min":49,"x_max":853,"ha":869,"o":"m 853 657 l 853 542 l 735 542 l 735 53 q 724 -93 735 -46 q 675 -191 714 -141 q 558 -275 636 -241 q 384 -309 480 -309 q 124 -221 238 -309 l 209 -127 q 394 -194 294 -194 q 498 -172 450 -194 q 568 -120 545 -151 q 599 -62 592 -90 q 605 29 605 -35 l 605 89 q 510 15 575 50 q 367 -19 445 -19 q 137 78 226 -19 q 49 318 49 176 q 147 570 49 474 q 373 667 245 667 q 606 563 504 667 l 606 657 l 853 657 m 186 321 q 244 159 186 222 q 392 96 302 96 q 544 159 480 96 q 608 322 608 222 q 544 484 608 423 q 396 546 480 546 q 249 485 312 546 q 186 321 186 424 "},"ƒ":{"x_min":31.203125,"x_max":735.8125,"ha":766,"o":"m 31 -274 l 54 -169 q 158 -184 122 -184 q 213 -165 193 -184 q 244 -80 233 -146 l 364 626 l 228 626 l 244 721 l 381 721 l 397 811 q 432 931 413 894 q 492 990 452 969 q 587 1012 532 1012 q 735 986 644 1012 l 712 882 q 607 899 644 899 q 547 877 564 899 q 518 790 531 855 l 505 721 l 644 721 l 627 626 l 488 626 l 359 -114 q 300 -253 341 -214 q 187 -292 259 -292 q 31 -274 119 -292 "},"e":{"x_min":50,"x_max":744.03125,"ha":796,"o":"m 742 296 l 192 296 q 264 148 204 204 q 416 92 323 92 q 630 200 551 92 l 744 150 q 599 22 688 64 q 413 -19 510 -19 q 156 74 263 -19 q 50 328 50 168 q 154 577 50 479 q 393 675 258 675 q 634 579 526 675 q 742 296 742 484 m 611 390 q 539 515 597 459 q 396 571 481 571 q 264 520 319 571 q 197 390 209 469 l 611 390 "},"J":{"x_min":-49,"x_max":417,"ha":435,"o":"m -49 -280 l -49 -148 q 52 -162 3 -162 q 133 -128 113 -162 q 154 6 154 -94 l 154 825 l 33 825 l 33 943 l 417 943 l 417 825 l 296 825 l 296 0 q 280 -162 296 -107 q 203 -256 264 -217 q 59 -296 142 -296 q -49 -280 1 -296 "},"|":{"x_min":313,"x_max":419,"ha":732,"o":"m 313 963 l 419 963 l 419 -309 l 313 -309 l 313 963 "},"^":{"x_min":36.625,"x_max":615.09375,"ha":652,"o":"m 162 400 l 36 400 l 276 943 l 374 943 l 615 400 l 492 400 l 324 804 l 162 400 "},"q":{"x_min":50,"x_max":851,"ha":854,"o":"m 732 -179 l 851 -179 l 851 -294 l 475 -294 l 475 -179 l 603 -179 l 603 83 q 370 -18 504 -18 q 148 73 247 -18 q 50 326 50 164 q 141 573 50 480 q 369 667 233 667 q 603 553 506 667 l 603 657 l 842 657 l 842 542 l 732 542 l 732 -179 m 605 319 q 540 488 605 424 q 389 553 475 553 q 245 492 306 553 q 184 328 184 432 q 239 165 184 232 q 395 99 294 99 q 550 166 496 99 q 605 319 605 234 "},"b":{"x_min":37,"x_max":837,"ha":897,"o":"m 37 0 l 37 115 l 154 115 l 154 829 l 37 829 l 37 944 l 280 944 l 280 564 q 517 675 376 675 q 745 581 653 675 q 837 335 837 488 q 747 89 837 189 q 517 -11 657 -11 q 373 22 438 -11 q 280 97 308 56 l 280 0 l 37 0 m 284 326 q 346 164 284 224 q 491 104 409 104 q 639 167 577 104 q 702 339 702 231 q 640 500 702 443 q 494 558 578 558 q 348 498 412 558 q 284 326 284 439 "},"D":{"x_min":18,"x_max":942,"ha":1013,"o":"m 146 118 l 146 826 l 18 826 l 18 944 l 382 944 q 615 928 533 944 q 773 857 697 912 q 896 706 850 802 q 942 487 942 610 q 897 244 942 348 q 782 90 853 141 q 612 20 710 40 q 361 0 513 0 l 18 0 l 18 118 l 146 118 m 288 118 l 362 118 q 560 133 487 118 q 683 186 633 149 q 764 300 733 224 q 796 479 796 376 q 744 688 796 602 q 613 799 693 773 q 368 826 534 826 l 288 826 l 288 118 "},"z":{"x_min":22.65625,"x_max":588,"ha":623,"o":"m 22 0 l 22 107 l 434 550 l 165 550 l 165 423 l 55 423 l 55 657 l 588 657 l 588 541 l 175 107 l 475 107 l 475 241 l 588 241 l 588 0 l 22 0 "},"w":{"x_min":-2,"x_max":1071,"ha":1071,"o":"m 253 -10 l 78 542 l -2 542 l -2 657 l 275 657 l 275 542 l 188 542 l 314 145 l 439 542 l 368 542 l 368 657 l 685 657 l 685 542 l 613 542 l 738 145 l 865 542 l 775 542 l 775 657 l 1071 657 l 1071 542 l 976 542 l 800 -10 l 678 -10 l 528 463 l 375 -10 l 253 -10 "},"$":{"x_min":43,"x_max":695,"ha":753,"o":"m 320 -11 q 118 69 193 -11 q 43 265 43 150 q 43 285 43 271 l 172 285 q 320 96 172 115 l 320 408 q 61 669 61 459 q 130 854 61 782 q 320 936 199 926 l 320 979 l 422 979 l 422 936 q 581 867 511 927 q 652 654 652 806 l 652 638 l 533 638 q 507 767 533 724 q 422 823 481 809 l 422 522 q 640 428 585 491 q 695 267 695 364 q 623 72 695 144 q 422 -13 552 0 l 422 -119 l 320 -119 l 320 -11 m 320 545 l 320 828 q 197 689 197 806 q 320 545 197 578 m 422 386 l 422 97 q 565 248 565 124 q 537 334 565 299 q 422 386 509 368 "},"\\":{"x_min":6.78125,"x_max":600.859375,"ha":608,"o":"m 119 963 l 600 -15 l 488 -15 l 6 963 l 119 963 "},"~":{"x_min":33,"x_max":776,"ha":809,"o":"m 776 451 q 577 365 670 365 q 496 377 536 365 q 365 432 457 389 q 235 472 279 472 q 33 377 143 472 l 33 491 q 239 579 139 579 q 438 514 302 579 q 576 472 530 472 q 776 566 666 472 l 776 451 "},"-":{"x_min":43,"x_max":450,"ha":492,"o":"m 43 390 l 450 390 l 450 261 l 43 261 l 43 390 "},"Q":{"x_min":69,"x_max":1044,"ha":1113,"o":"m 620 -10 l 648 -22 q 819 -68 759 -68 q 868 -61 838 -68 l 818 -178 q 781 -182 798 -182 q 595 -124 713 -182 q 435 -76 494 -76 q 338 -109 375 -76 l 298 -51 q 403 5 338 -8 q 210 121 289 41 q 100 292 131 200 q 69 475 69 384 q 201 817 69 675 q 553 958 333 958 q 908 820 772 958 q 1044 473 1044 683 q 1001 261 1044 362 q 854 80 958 160 q 620 -10 751 0 m 224 475 q 314 215 224 320 q 553 110 405 110 q 794 217 700 110 q 889 474 889 325 q 792 728 889 624 q 551 833 696 833 q 315 730 407 833 q 224 475 224 628 "},"M":{"x_min":34,"x_max":1182,"ha":1215,"o":"m 147 118 l 147 826 l 34 826 l 34 944 l 357 944 l 605 297 l 856 944 l 1182 944 l 1182 826 l 1068 826 l 1068 118 l 1182 118 l 1182 0 l 827 0 l 827 118 l 939 118 l 939 826 l 614 -9 l 586 -9 l 264 826 l 264 118 l 368 118 l 368 0 l 34 0 l 34 118 l 147 118 "},"C":{"x_min":59,"x_max":988.4375,"ha":1055,"o":"m 865 383 l 988 315 q 821 71 947 157 q 532 -15 695 -15 q 188 124 317 -15 q 59 468 59 263 q 189 825 59 692 q 528 959 319 959 q 840 857 713 959 l 840 943 l 962 943 l 962 640 l 840 640 q 714 783 799 732 q 536 834 629 834 q 304 732 395 834 q 214 474 214 630 q 310 214 214 315 q 540 113 407 113 q 739 183 650 113 q 865 383 829 253 "},"[":{"x_min":146,"x_max":481.171875,"ha":521,"o":"m 481 943 l 481 849 l 275 849 l 275 -189 l 481 -189 l 481 -283 l 146 -283 l 146 943 l 481 943 "},"L":{"x_min":20,"x_max":712,"ha":724,"o":"m 142 118 l 142 826 l 20 826 l 20 944 l 406 944 l 406 826 l 290 826 l 290 118 l 579 118 l 579 438 l 712 438 l 712 0 l 20 0 l 20 118 l 142 118 "},"!":{"x_min":119,"x_max":286,"ha":405,"o":"m 236 256 l 166 256 l 133 657 l 133 944 l 270 944 l 270 657 l 236 256 m 119 0 l 119 167 l 286 167 l 286 0 l 119 0 "}," ":{"x_min":0,"x_max":0,"ha":347},"{":{"x_min":39,"x_max":431,"ha":462,"o":"m 39 379 q 120 402 87 379 q 165 469 152 425 q 179 627 179 513 q 195 830 179 773 q 257 915 211 887 q 393 944 303 944 l 431 944 l 431 843 l 410 843 q 318 820 342 843 q 294 712 294 797 q 287 501 294 561 q 249 398 280 441 q 151 325 219 355 q 258 237 223 297 q 294 37 294 176 q 297 -123 294 -89 q 323 -175 301 -157 q 410 -193 345 -193 l 431 -193 l 431 -294 l 393 -294 q 288 -281 326 -294 q 222 -232 250 -268 q 186 -144 194 -196 q 179 22 179 -91 q 165 181 179 136 q 119 248 152 225 q 39 272 87 272 l 39 379 "},"X":{"x_min":14,"x_max":898,"ha":910,"o":"m 140 118 l 380 475 l 140 826 l 19 826 l 19 944 l 399 944 l 399 826 l 292 826 l 455 586 l 620 826 l 511 826 l 511 944 l 873 944 l 873 826 l 755 826 l 522 487 l 775 118 l 898 118 l 898 0 l 511 0 l 511 118 l 620 118 l 447 374 l 275 118 l 390 118 l 390 0 l 14 0 l 14 118 l 140 118 "},"P":{"x_min":28,"x_max":761,"ha":796,"o":"m 147 118 l 147 826 l 28 826 l 28 944 l 365 944 q 587 922 513 944 q 711 827 661 901 q 761 652 761 753 q 728 507 761 571 q 646 412 695 443 q 537 371 598 382 q 354 361 476 361 l 289 361 l 289 118 l 411 118 l 411 0 l 28 0 l 28 118 l 147 118 m 289 475 l 370 475 q 563 514 509 475 q 617 654 617 554 q 588 760 617 718 q 517 814 559 802 q 377 826 475 826 l 289 826 l 289 475 "},"%":{"x_min":111,"x_max":1234,"ha":1347,"o":"m 111 705 q 161 888 111 818 q 312 958 212 958 q 459 892 405 958 q 514 705 514 826 q 462 521 514 589 q 312 453 410 453 q 165 518 219 453 q 111 705 111 583 m 209 705 q 312 518 209 518 q 416 705 416 518 q 312 893 416 893 q 209 705 209 893 m 249 0 l 997 943 l 1093 943 l 350 0 l 249 0 m 831 237 q 885 424 831 359 q 1032 490 940 490 q 1183 419 1133 490 q 1234 237 1234 349 q 1179 50 1234 115 q 1032 -15 1125 -15 q 885 50 939 -15 q 831 237 831 115 m 929 237 q 1032 50 929 50 q 1136 237 1136 50 q 1032 425 1136 425 q 929 237 929 425 "},"#":{"x_min":58,"x_max":868,"ha":926,"o":"m 374 691 l 642 691 l 697 956 l 797 956 l 742 691 l 868 691 l 868 591 l 721 591 l 672 352 l 868 352 l 868 252 l 651 252 l 596 -13 l 496 -13 l 551 252 l 283 252 l 228 -13 l 128 -13 l 183 252 l 58 252 l 58 352 l 204 352 l 253 591 l 58 591 l 58 691 l 274 691 l 329 956 l 429 956 l 374 691 m 353 591 l 304 352 l 572 352 l 621 591 l 353 591 "},"_":{"x_min":-8,"x_max":703,"ha":695,"o":"m -8 -105 l 703 -105 l 703 -174 l -8 -174 l -8 -105 "},"+":{"x_min":92,"x_max":835,"ha":927,"o":"m 92 525 l 411 525 l 411 843 l 517 843 l 517 525 l 835 525 l 835 418 l 517 418 l 517 100 l 411 100 l 411 418 l 92 418 l 92 525 "},")":{"x_min":39,"x_max":409,"ha":522,"o":"m 39 960 q 306 725 203 887 q 409 329 409 564 q 313 -54 409 103 q 39 -301 218 -211 l 39 -196 q 177 -67 123 -145 q 251 100 232 10 q 271 329 271 190 q 249 567 271 475 q 167 738 228 658 q 39 855 106 818 l 39 960 "},"'":{"x_min":55,"x_max":191.3125,"ha":246,"o":"m 107 562 l 70 762 q 55 871 55 847 q 120 959 55 959 q 172 937 153 959 q 191 887 191 916 q 173 762 191 859 l 137 562 l 107 562 "},"}":{"x_min":31,"x_max":424,"ha":463,"o":"m 424 272 q 342 248 375 272 q 297 180 310 225 q 284 22 284 136 q 267 -180 284 -123 q 205 -265 251 -237 q 69 -294 158 -294 l 31 -294 l 31 -194 l 52 -194 q 144 -171 120 -194 q 169 -62 169 -148 q 175 149 169 88 q 213 251 182 209 q 311 325 243 294 q 204 413 239 352 q 169 611 169 474 q 164 773 169 739 q 138 825 160 807 q 52 843 116 843 l 31 843 l 31 944 l 69 944 q 173 931 135 944 q 240 882 211 918 q 276 794 268 847 q 284 627 284 742 q 296 469 284 513 q 342 401 309 425 q 424 378 375 378 l 424 272 "},"a":{"x_min":64,"x_max":720,"ha":738,"o":"m 720 115 l 720 0 l 495 0 l 495 80 q 285 -11 400 -11 q 129 47 195 -11 q 64 196 64 105 q 134 348 64 288 q 302 409 204 409 q 481 353 394 409 l 481 418 q 471 495 481 468 q 427 544 462 522 q 336 566 392 566 q 195 488 239 566 l 72 521 q 356 675 154 675 q 483 654 430 675 q 564 603 537 634 q 599 535 590 571 q 609 418 609 498 l 609 115 l 720 115 m 481 244 q 312 309 397 309 q 222 277 258 309 q 187 197 187 246 q 218 120 187 151 q 304 89 250 89 q 481 167 397 89 l 481 244 "},"T":{"x_min":16,"x_max":780,"ha":796,"o":"m 327 118 l 327 826 l 133 826 l 133 585 l 16 585 l 16 944 l 780 944 l 780 585 l 663 585 l 663 826 l 469 826 l 469 118 l 592 118 l 592 0 l 206 0 l 206 118 l 327 118 "},"=":{"x_min":92,"x_max":835,"ha":927,"o":"m 92 685 l 835 685 l 835 578 l 92 578 l 92 685 m 92 366 l 835 366 l 835 259 l 92 259 l 92 366 "},"N":{"x_min":6.78125,"x_max":996,"ha":999,"o":"m 142 118 l 142 826 l 6 826 l 6 944 l 329 944 l 743 210 l 743 826 l 609 826 l 609 944 l 996 944 l 996 826 l 858 826 l 858 -9 l 711 -9 l 259 796 l 259 118 l 394 118 l 394 0 l 7 0 l 7 118 l 142 118 "},"2":{"x_min":55.609375,"x_max":663,"ha":753,"o":"m 663 337 l 663 0 l 55 0 q 90 186 55 97 q 189 341 125 275 q 382 503 252 408 q 493 603 464 563 q 523 697 523 644 q 481 805 523 763 q 368 847 440 847 q 244 799 283 847 q 205 643 205 752 q 205 592 205 616 l 80 592 q 80 632 80 616 q 152 871 80 785 q 365 958 225 958 q 582 884 506 958 q 658 702 658 810 q 608 548 658 612 q 419 386 558 485 q 241 230 283 290 q 192 123 198 169 l 550 123 l 550 337 l 663 337 "},"j":{"x_min":-26,"x_max":293,"ha":406,"o":"m 137 879 q 160 934 137 911 q 215 957 183 957 q 270 934 247 957 q 293 879 293 912 q 269 824 293 847 q 215 802 246 802 q 159 825 181 802 q 137 879 137 848 m -26 -282 l -26 -165 q 36 -170 6 -170 q 112 -154 87 -170 q 146 -108 138 -138 q 155 76 155 -79 l 155 542 l 51 542 l 51 657 l 284 657 l 284 97 q 273 -137 284 -71 q 208 -246 262 -204 q 49 -289 155 -289 q -26 -282 9 -289 "},"Z":{"x_min":34.421875,"x_max":736,"ha":782,"o":"m 34 0 l 34 118 l 539 826 l 175 826 l 175 659 l 58 659 l 58 944 l 720 944 l 720 839 l 206 118 l 619 118 l 619 300 l 736 300 l 736 0 l 34 0 "},"u":{"x_min":36.078125,"x_max":768,"ha":782,"o":"m 768 115 l 768 0 l 526 0 l 526 75 q 309 -11 412 -11 q 200 17 243 -11 q 143 92 157 46 q 129 240 129 138 l 129 542 l 36 542 l 36 657 l 258 657 l 258 256 q 262 158 258 184 q 285 117 266 133 q 335 101 305 101 q 526 186 424 101 l 526 542 l 410 542 l 410 657 l 655 657 l 655 115 l 768 115 "},"1":{"x_min":200,"x_max":580,"ha":752,"o":"m 329 115 l 329 829 l 200 829 l 200 942 l 458 942 l 458 115 l 580 115 l 580 0 l 200 0 l 200 115 l 329 115 "},"k":{"x_min":34,"x_max":780,"ha":796,"o":"m 152 115 l 152 829 l 34 829 l 34 944 l 281 944 l 281 354 l 526 550 l 417 550 l 417 657 l 780 657 l 780 550 l 679 550 l 433 345 l 664 115 l 780 115 l 780 0 l 611 0 l 281 330 l 281 115 l 394 115 l 394 0 l 34 0 l 34 115 l 152 115 "},"€":{"x_min":17,"x_max":737.765625,"ha":753,"o":"m 238 518 l 238 474 l 238 430 l 489 430 l 489 327 l 248 327 q 454 98 281 98 q 553 147 510 98 q 614 277 596 197 l 737 223 q 639 49 716 114 q 444 -16 563 -16 q 105 327 148 -16 l 17 327 l 17 430 l 97 430 l 97 470 q 98 518 97 503 l 17 518 l 17 620 l 105 620 q 441 958 145 958 q 589 892 542 958 l 589 951 l 712 951 l 712 670 l 589 670 q 539 800 578 753 q 440 847 499 847 q 307 792 354 847 q 245 620 260 737 l 489 620 l 489 518 l 238 518 "},"<":{"x_min":92,"x_max":835,"ha":927,"o":"m 835 111 l 92 424 l 92 519 l 835 831 l 835 716 l 237 471 l 835 227 l 835 111 "},"t":{"x_min":42,"x_max":378,"ha":419,"o":"m 42 542 l 42 657 l 127 657 l 127 758 l 256 876 l 256 657 l 378 657 l 378 542 l 256 542 l 256 222 q 264 128 256 146 q 307 110 273 110 q 378 123 343 110 l 378 6 q 278 -11 328 -11 q 182 15 219 -11 q 136 80 146 41 q 127 215 127 119 l 127 542 l 42 542 "},"W":{"x_min":0,"x_max":1390,"ha":1389,"o":"m 353 -9 l 113 826 l 0 826 l 0 944 l 361 944 l 361 826 l 247 826 l 426 208 l 597 826 l 485 826 l 485 944 l 918 944 l 918 826 l 807 826 l 979 208 l 1155 826 l 1043 826 l 1043 944 l 1390 944 l 1390 826 l 1278 826 l 1043 -9 l 907 -9 l 695 737 l 485 -9 l 353 -9 "},"v":{"x_min":-3,"x_max":755,"ha":753,"o":"m 327 -10 l 112 542 l -3 542 l -3 657 l 327 657 l 327 542 l 241 542 l 382 169 l 524 542 l 434 542 l 434 657 l 755 657 l 755 542 l 653 542 l 444 -10 l 327 -10 "},">":{"x_min":92,"x_max":835,"ha":927,"o":"m 92 831 l 835 519 l 835 424 l 92 111 l 92 227 l 689 471 l 92 716 l 92 831 "},"s":{"x_min":57,"x_max":596,"ha":636,"o":"m 57 0 l 57 225 l 172 225 l 172 203 q 221 127 178 157 q 325 98 265 98 q 424 119 387 98 q 462 179 462 141 q 431 234 462 217 q 309 267 400 252 q 115 341 173 290 q 58 474 58 392 q 121 611 58 556 q 287 667 184 667 q 447 629 380 667 l 447 657 l 562 657 l 562 439 l 447 439 l 447 479 q 295 560 394 560 q 211 537 244 560 q 179 479 179 515 q 209 427 179 441 q 338 398 239 413 q 482 363 434 383 q 563 296 531 343 q 596 188 596 250 q 525 42 596 96 q 344 -11 455 -11 q 172 36 239 -11 l 172 0 l 57 0 "},"B":{"x_min":31,"x_max":751,"ha":810,"o":"m 147 118 l 147 826 l 31 826 l 31 944 l 344 944 q 539 928 474 944 q 653 849 604 912 q 703 700 703 785 q 673 581 703 634 q 587 501 644 528 q 708 411 665 474 q 751 267 751 348 q 719 141 751 198 q 635 52 687 84 q 521 10 583 21 q 351 0 459 0 l 31 0 l 31 118 l 147 118 m 289 551 l 378 551 q 520 586 480 551 q 561 691 561 622 q 378 826 561 826 l 289 826 l 289 551 m 289 118 l 342 118 q 497 128 448 118 q 577 177 546 139 q 608 278 608 216 q 578 371 608 333 q 502 421 548 408 q 370 434 455 434 l 289 434 l 289 118 "},"?":{"x_min":42,"x_max":608,"ha":651,"o":"m 329 254 l 252 254 l 252 554 q 307 546 275 546 q 434 590 395 546 q 474 697 474 635 q 431 809 474 769 q 324 849 389 849 q 207 803 245 849 q 169 690 169 758 q 169 657 169 676 l 42 657 q 42 688 42 675 q 124 893 42 827 q 320 959 206 959 q 532 885 457 959 q 608 691 608 811 q 536 506 608 575 q 368 437 465 437 q 346 437 360 437 l 329 254 m 211 0 l 211 167 l 377 167 l 377 0 l 211 0 "},"H":{"x_min":37,"x_max":947,"ha":983,"o":"m 144 118 l 144 826 l 37 826 l 37 944 l 398 944 l 398 826 l 286 826 l 286 556 l 697 556 l 697 826 l 586 826 l 586 944 l 947 944 l 947 826 l 839 826 l 839 118 l 947 118 l 947 0 l 586 0 l 586 118 l 697 118 l 697 438 l 286 438 l 286 118 l 398 118 l 398 0 l 37 0 l 37 118 l 144 118 "},"c":{"x_min":49,"x_max":692.015625,"ha":723,"o":"m 671 657 l 671 409 l 556 409 q 498 518 547 480 q 384 556 449 556 q 243 494 297 556 q 189 333 189 433 q 240 169 189 240 q 389 98 291 98 q 585 227 524 98 l 692 176 q 383 -19 603 -19 q 138 87 227 -19 q 49 333 49 194 q 146 578 49 481 q 371 675 244 675 q 556 610 480 675 l 556 657 l 671 657 "},"&":{"x_min":43,"x_max":909,"ha":940,"o":"m 715 499 l 908 499 l 908 384 l 808 384 q 715 181 772 253 l 764 118 l 909 118 l 909 0 l 693 0 l 631 82 q 380 -15 508 -15 q 138 75 234 -15 q 43 303 43 166 q 258 585 43 491 q 194 750 194 667 q 262 899 194 841 q 422 958 331 958 q 582 900 517 958 q 648 755 648 842 q 602 632 648 680 q 450 541 556 584 l 641 281 q 715 499 693 371 m 382 630 q 493 694 464 664 q 523 760 523 724 q 497 820 523 793 q 425 847 472 847 q 354 821 382 847 q 326 754 326 795 q 374 642 326 717 l 382 630 m 330 499 q 183 308 183 433 q 244 164 183 226 q 394 102 306 102 q 558 177 484 102 l 330 499 "},"I":{"x_min":43,"x_max":390,"ha":434,"o":"m 146 118 l 146 826 l 43 826 l 43 944 l 390 944 l 390 826 l 288 826 l 288 118 l 390 118 l 390 0 l 43 0 l 43 118 l 146 118 "},"G":{"x_min":67,"x_max":1047,"ha":1113,"o":"m 704 455 l 1047 455 q 1047 422 1047 436 q 916 104 1047 223 q 573 -15 786 -15 q 192 130 317 -15 q 67 474 67 276 q 195 820 67 683 q 543 958 323 958 q 874 838 740 958 l 874 944 l 994 944 l 994 634 l 874 634 q 753 772 840 711 q 555 833 667 833 q 311 728 401 833 q 222 476 222 624 q 324 209 222 308 q 570 110 426 110 q 770 172 682 110 q 874 337 859 235 l 704 337 l 704 455 "},"(":{"x_min":113,"x_max":483,"ha":522,"o":"m 483 960 l 483 855 q 350 734 409 816 q 271 561 291 651 q 251 329 251 470 q 276 75 251 170 q 358 -86 302 -18 q 483 -196 414 -154 l 483 -301 q 227 -82 341 -244 q 113 330 113 79 q 213 721 113 553 q 483 960 313 888 "},"`":{"x_min":75.28125,"x_max":358.078125,"ha":463,"o":"m 358 744 l 271 744 l 75 959 l 262 959 l 358 744 "},"U":{"x_min":18,"x_max":922,"ha":940,"o":"m 277 826 l 277 353 q 288 201 277 243 q 344 129 299 159 q 459 100 388 100 q 588 125 543 100 q 647 194 632 150 q 662 346 662 237 l 662 826 l 553 826 l 553 944 l 922 944 l 922 826 l 804 826 l 804 332 q 795 187 804 232 q 749 93 787 142 q 644 14 712 43 q 480 -15 576 -15 q 301 12 372 -15 q 194 86 230 39 q 146 184 158 132 q 135 346 135 236 l 135 826 l 18 826 l 18 944 l 389 944 l 389 826 l 277 826 "},"◊":{"x_min":31.203125,"x_max":655.109375,"ha":686,"o":"m 371 965 l 655 481 l 371 0 l 296 0 l 31 481 l 296 965 l 371 965 m 335 899 l 104 481 l 335 63 l 578 481 l 335 899 "},"F":{"x_min":24.90625,"x_max":757,"ha":766,"o":"m 145 118 l 145 826 l 24 826 l 24 944 l 757 944 l 757 659 l 640 659 l 640 826 l 287 826 l 287 546 l 591 546 l 591 428 l 287 428 l 287 118 l 407 118 l 407 0 l 25 0 l 25 118 l 145 118 "},"r":{"x_min":30.75,"x_max":560,"ha":580,"o":"m 163 115 l 163 542 l 30 542 l 30 657 l 266 657 l 266 509 q 326 604 287 566 q 408 654 365 642 q 526 667 451 667 l 560 667 l 560 537 l 534 537 q 387 517 435 537 q 315 445 338 497 q 292 259 292 393 l 292 115 l 435 115 l 435 0 l 31 0 l 31 115 l 163 115 "},":":{"x_min":119,"x_max":286,"ha":405,"o":"m 119 490 l 119 657 l 286 657 l 286 490 l 119 490 m 119 0 l 119 167 l 286 167 l 286 0 l 119 0 "},"x":{"x_min":24,"x_max":742,"ha":766,"o":"m 385 261 l 257 115 l 342 115 l 342 0 l 24 0 l 24 115 l 121 115 l 318 337 l 129 542 l 41 542 l 41 657 l 350 657 l 350 542 l 267 542 l 385 415 l 499 542 l 432 542 l 432 657 l 742 657 l 742 542 l 634 542 l 454 337 l 659 115 l 742 115 l 742 0 l 432 0 l 432 115 l 522 115 l 385 261 "},"*":{"x_min":45.6875,"x_max":676.3125,"ha":724,"o":"m 422 958 l 422 843 q 381 676 381 760 q 525 768 470 708 l 639 804 l 676 684 l 565 646 q 523 651 542 651 q 399 636 450 651 q 525 528 463 555 l 594 433 l 493 361 l 422 456 q 361 613 413 542 q 300 456 308 542 l 228 361 l 127 433 l 196 528 q 323 636 258 555 q 198 651 271 651 q 156 646 179 651 l 45 684 l 82 804 l 196 768 q 342 676 251 708 q 300 843 342 760 l 300 958 l 422 958 "},"V":{"x_min":-3,"x_max":986,"ha":983,"o":"m 430 -9 l 113 826 l -3 826 l -3 944 l 369 944 l 369 826 l 259 826 l 499 192 l 733 826 l 624 826 l 624 944 l 986 944 l 986 826 l 871 826 l 560 -9 l 430 -9 "},"h":{"x_min":28,"x_max":787.890625,"ha":796,"o":"m 147 115 l 147 829 l 28 829 l 28 944 l 276 944 l 276 581 q 495 675 391 675 q 603 647 561 675 q 660 576 645 620 q 676 446 676 531 l 676 115 l 787 115 l 787 0 l 547 0 l 547 401 q 542 501 547 476 q 516 542 537 526 q 465 559 494 559 q 276 474 391 559 l 276 115 l 389 115 l 389 0 l 28 0 l 28 115 l 147 115 "},"0":{"x_min":49,"x_max":704,"ha":754,"o":"m 49 471 q 136 832 49 705 q 376 959 224 959 q 619 827 534 959 q 704 471 704 695 q 616 112 704 239 q 376 -15 528 -15 q 133 117 218 -15 q 49 471 49 249 m 187 471 q 235 182 187 269 q 376 95 284 95 q 517 182 468 95 q 566 471 566 270 q 516 762 566 676 q 376 849 466 849 q 230 750 274 849 q 187 471 187 652 "},".":{"x_min":119,"x_max":286,"ha":405,"o":"m 119 0 l 119 167 l 286 167 l 286 0 l 119 0 "},"@":{"x_min":77,"x_max":1361.234375,"ha":1402,"o":"m 789 93 q 581 -18 690 -18 q 408 65 481 -18 q 336 285 336 149 q 443 582 336 446 q 687 718 551 718 q 892 594 816 718 l 914 698 l 1036 698 l 938 243 q 918 137 918 148 q 933 105 918 118 q 964 93 948 93 q 1066 138 1000 93 q 1180 275 1132 184 q 1228 468 1228 366 q 1087 775 1228 654 q 742 897 947 897 q 334 727 491 897 q 177 313 177 557 q 333 -73 177 61 q 761 -209 489 -209 q 1045 -155 920 -209 q 1238 -4 1170 -101 l 1361 -4 q 1151 -214 1304 -120 q 763 -309 997 -309 q 256 -142 435 -309 q 77 300 77 23 q 253 786 77 578 q 748 995 429 995 q 1168 840 1009 995 q 1328 465 1328 686 q 1200 128 1328 277 q 919 -20 1073 -20 q 823 7 851 -20 q 789 93 794 35 m 461 274 q 503 135 461 189 q 605 82 546 82 q 775 185 698 82 q 853 423 853 288 q 808 566 853 514 q 696 618 763 618 q 527 504 593 618 q 461 274 461 391 "},"f":{"x_min":38,"x_max":477.203125,"ha":405,"o":"m 134 115 l 134 542 l 38 542 l 38 656 l 134 656 l 134 751 q 184 917 134 871 q 304 963 235 963 q 477 811 453 963 l 362 793 q 313 857 356 857 q 273 836 284 857 q 263 751 263 816 l 263 656 l 375 656 l 375 542 l 263 542 l 263 115 l 387 115 l 387 0 l 38 0 l 38 115 l 134 115 "},";":{"x_min":119,"x_max":286,"ha":405,"o":"m 119 490 l 119 657 l 286 657 l 286 490 l 119 490 m 119 0 l 119 167 l 286 167 l 286 21 q 274 -93 286 -53 q 225 -161 262 -134 q 119 -187 187 -187 l 119 -117 q 200 -16 200 -105 q 200 0 200 -10 l 119 0 "},"i":{"x_min":44.609375,"x_max":377,"ha":405,"o":"m 129 879 q 151 933 129 910 q 207 957 173 957 q 261 934 238 957 q 285 879 285 912 q 261 824 285 847 q 207 802 238 802 q 151 825 174 802 q 129 879 129 848 m 147 115 l 147 542 l 44 542 l 44 657 l 276 657 l 276 115 l 377 115 l 377 0 l 45 0 l 45 115 l 147 115 "},"6":{"x_min":68,"x_max":676,"ha":753,"o":"m 667 665 l 554 665 q 497 796 544 745 q 384 847 451 847 q 243 753 293 847 q 193 495 193 659 q 414 600 288 600 q 599 520 522 600 q 676 307 676 440 q 600 79 676 174 q 392 -15 524 -15 q 156 106 245 -15 q 68 465 68 227 q 153 825 68 692 q 400 958 239 958 q 597 875 527 958 q 667 665 667 792 m 199 353 q 386 97 229 97 q 511 156 466 97 q 556 297 556 215 q 513 427 556 377 q 399 477 471 477 q 199 353 298 477 "},"A":{"x_min":-11,"x_max":981,"ha":970,"o":"m 657 332 l 318 332 l 246 118 l 361 118 l 361 0 l -11 0 l -11 118 l 102 118 l 361 837 l 246 837 l 246 944 l 728 944 l 728 837 l 611 837 l 874 118 l 981 118 l 981 0 l 611 0 l 611 118 l 728 118 l 657 332 m 622 443 l 497 837 l 484 837 l 354 443 l 622 443 "},"π":{"x_min":35,"x_max":835,"ha":869,"o":"m 35 721 l 835 721 l 835 614 l 727 614 l 727 0 l 599 0 l 599 614 l 270 614 l 270 0 l 143 0 l 143 614 l 35 614 l 35 721 "},"n":{"x_min":37,"x_max":791.546875,"ha":796,"o":"m 281 657 l 281 577 q 507 667 404 667 q 613 636 571 667 q 668 562 655 606 q 681 434 681 518 l 681 115 l 791 115 l 791 0 l 552 0 l 552 429 q 529 527 552 504 q 474 550 507 550 q 281 466 388 550 l 281 115 l 394 115 l 394 0 l 37 0 l 37 115 l 152 115 l 152 542 l 37 542 l 37 657 l 281 657 "},"O":{"x_min":69,"x_max":1045,"ha":1113,"o":"m 69 476 q 203 820 69 681 q 553 958 337 958 q 907 820 770 958 q 1045 473 1045 681 q 905 123 1045 261 q 551 -15 766 -15 q 299 50 414 -15 q 126 232 184 115 q 69 476 69 349 m 224 475 q 314 215 224 320 q 553 110 405 110 q 794 217 700 110 q 889 474 889 325 q 792 728 889 624 q 551 833 696 833 q 315 730 407 833 q 224 475 224 628 "},"3":{"x_min":46,"x_max":695,"ha":753,"o":"m 284 434 l 284 551 q 427 562 383 551 q 497 608 472 574 q 523 694 523 642 q 485 803 523 758 q 375 849 448 849 q 258 801 295 849 q 222 658 222 753 l 90 658 q 170 890 90 821 q 366 959 250 959 q 580 889 508 959 q 652 710 652 819 q 611 575 652 630 q 518 497 570 520 q 695 271 695 444 q 598 56 695 128 q 371 -15 501 -15 q 125 73 205 -15 q 46 319 46 162 l 172 319 q 228 153 172 210 q 378 96 284 96 q 512 143 463 96 q 561 261 561 190 q 504 385 561 337 q 322 434 447 434 q 284 434 306 434 "},"]":{"x_min":39.84375,"x_max":375,"ha":521,"o":"m 39 943 l 375 943 l 375 -283 l 39 -283 l 39 -189 l 246 -189 l 246 849 l 39 849 l 39 943 "},"m":{"x_min":37,"x_max":1194.609375,"ha":1202,"o":"m 154 115 l 154 542 l 45 542 l 45 657 l 283 657 l 283 574 q 511 667 399 667 q 667 564 624 667 q 905 667 795 667 q 1010 638 969 667 q 1065 567 1051 610 q 1080 440 1080 524 l 1080 115 l 1194 115 l 1194 0 l 951 0 l 951 417 q 945 497 951 474 q 920 536 940 521 q 870 552 899 552 q 683 466 787 552 l 683 115 l 795 115 l 795 0 l 554 0 l 554 429 q 535 522 554 493 q 471 552 516 552 q 283 466 398 552 l 283 115 l 398 115 l 398 0 l 37 0 l 37 115 l 154 115 "},"9":{"x_min":64,"x_max":672,"ha":753,"o":"m 72 279 l 185 279 q 242 147 195 198 q 355 96 289 96 q 496 190 446 96 q 547 447 547 284 q 326 343 452 343 q 139 423 214 343 q 64 636 64 504 q 140 864 64 769 q 348 959 216 959 q 583 837 495 959 q 672 477 672 716 q 586 117 672 250 q 339 -15 501 -15 q 143 68 213 -15 q 72 279 72 151 m 540 589 q 353 847 511 847 q 229 788 275 847 q 184 646 184 730 q 224 517 184 569 q 341 466 264 466 q 540 589 441 466 "},"l":{"x_min":28,"x_max":374,"ha":406,"o":"m 145 115 l 145 829 l 28 829 l 28 944 l 274 944 l 274 115 l 374 115 l 374 0 l 28 0 l 28 115 l 145 115 "},"8":{"x_min":46,"x_max":705,"ha":752,"o":"m 212 493 q 75 711 75 573 q 161 895 75 831 q 368 959 247 959 q 593 892 510 959 q 676 711 676 825 q 537 493 676 575 q 705 259 705 427 q 617 59 705 134 q 382 -15 530 -15 q 131 59 216 -15 q 46 259 46 134 q 212 493 46 427 m 202 698 q 249 585 202 624 q 379 546 296 546 q 498 583 448 546 q 548 698 548 621 q 370 847 548 847 q 248 808 294 847 q 202 698 202 770 m 183 265 q 234 142 183 190 q 375 95 286 95 q 514 141 460 95 q 568 265 568 187 q 517 388 568 341 q 371 436 467 436 q 235 390 288 436 q 183 265 183 345 "},"p":{"x_min":9,"x_max":810,"ha":867,"o":"m 129 -179 l 129 542 l 19 542 l 19 657 l 258 657 l 258 553 q 490 667 353 667 q 719 572 629 667 q 810 325 810 477 q 711 74 810 166 q 488 -18 613 -18 q 258 82 357 -18 l 258 -179 l 385 -179 l 385 -294 l 9 -294 l 9 -179 l 129 -179 m 255 319 q 278 215 255 265 q 349 132 300 166 q 463 99 398 99 q 616 160 556 99 q 676 330 676 222 q 613 494 676 435 q 470 553 550 553 q 320 488 385 553 q 255 319 255 424 "},"4":{"x_min":40.625,"x_max":693,"ha":753,"o":"m 418 254 l 100 254 q 40 360 84 317 l 432 951 l 542 951 l 542 368 l 693 368 l 693 254 l 542 254 l 542 115 l 629 115 l 629 0 l 318 0 l 318 115 l 418 115 l 418 254 m 418 368 l 418 739 l 170 368 l 418 368 "},"R":{"x_min":18,"x_max":842.3125,"ha":840,"o":"m 148 118 l 148 826 l 18 826 l 18 944 l 400 944 q 591 925 520 944 q 707 846 661 906 q 754 696 754 786 q 559 461 754 509 l 726 118 l 842 118 l 842 0 l 637 0 l 423 441 l 290 441 l 290 118 l 411 118 l 411 0 l 18 0 l 18 118 l 148 118 m 290 559 l 401 559 q 519 569 481 559 q 582 612 558 580 q 607 698 607 644 q 582 777 607 745 q 521 817 557 809 q 410 826 485 826 l 290 826 l 290 559 "},"o":{"x_min":53,"x_max":743.3125,"ha":796,"o":"m 53 328 q 153 577 53 480 q 398 675 253 675 q 641 579 539 675 q 743 328 743 483 q 641 77 743 173 q 398 -19 540 -19 q 152 78 251 -19 q 53 328 53 176 m 189 328 q 250 169 189 231 q 398 107 310 107 q 546 169 486 107 q 607 328 607 232 q 545 487 607 424 q 398 549 484 549 q 248 485 307 549 q 189 328 189 421 "},"5":{"x_min":54.46875,"x_max":691,"ha":753,"o":"m 54 301 l 171 301 q 233 150 181 206 q 368 94 284 94 q 505 152 453 94 q 557 301 557 210 q 506 449 557 398 q 381 501 456 501 q 192 387 269 501 q 113 456 148 430 l 113 942 l 636 942 l 636 692 l 519 692 l 519 821 l 219 821 l 219 544 q 400 614 295 614 q 613 524 535 614 q 691 302 691 435 q 605 74 691 163 q 364 -15 519 -15 q 137 65 221 -15 q 54 301 54 146 "}}}
